<?xml version="1.0" encoding="utf-8"?>
<!-- Generator: Adobe Illustrator 27.8.0, SVG Export Plug-In . SVG Version: 6.00 Build 0)  -->
<svg version="1.1" xmlns="http://www.w3.org/2000/svg" xmlns:xlink="http://www.w3.org/1999/xlink" x="0px" y="0px"
	 viewBox="0 0 1143.82 1143.82" style="enable-background:new 0 0 1143.82 1143.82;" xml:space="preserve">
<style type="text/css">
	.st0{fill:#FFFFFF;}
</style>
<g id="Layer_3">
</g>
<g id="Layer_1">
	<g>
		<path class="st0" d="M261.58,991.1c-27.33-65.68-53.81-129.31-79.96-192.17c1.63-2.26,2.12-3.69,3.07-4.14
			c46.88-22.45,93.62-45.18,140.76-67.07c40.14-18.64,81.11-17.86,117.66,6.48c39.95,26.61,85.44,34.86,129.76,47.76
			c15.25,4.44,30.87,7.67,46.02,12.43c24.5,7.7,38.23,32.88,31.72,56.77c-6.6,24.21-32.46,38.5-57.92,31.78
			c-53.79-14.19-107.54-28.53-161.32-42.75c-5.32-1.41-10.68-3-16.12-3.5c-10.59-0.97-16.41,2.84-18.41,11.06
			c-2.14,8.78,2.05,16.3,12.29,19.49c14.01,4.36,28.29,7.84,42.48,11.61c41.34,10.99,82.63,22.16,124.04,32.85
			c62.15,16.05,103.65-13.23,109.38-77.92c35.2-10.42,70.73-21.32,106.49-31.43c35.87-10.14,71.07-22.81,107.79-29.7
			c18.75-3.52,37.78-4.59,56.2,2.46c16.92,6.48,24.74,18.49,24.5,37c-0.36,27.66-17.67,51.39-46.15,62.45
			c-74.62,28.97-149.22,58-224,86.54c-34.82,13.29-69.27,27.54-104.8,39.03c-34.32,11.09-67.41,12.69-102.38,0.52
			c-41.5-14.44-84.32-25.13-126.69-37.01c-23.89-6.7-47.33-4.57-69.84,6.17C291.81,976.66,277.48,983.51,261.58,991.1z"/>
		<path class="st0" d="M601.69,535.99C541.25,506,495.83,461.72,471.18,397.99c-4.86-12.56-7.95-25.88-8.02-39.41
			c-0.29-49.68-0.11-99.36-0.11-149.61c17.34-5.83,34.81-10.87,51.63-17.58c19.87-7.93,38.93-17.8,56.86-29.55
			c6.49-4.25,12.93-6.08,20.62-5.97c23.93,0.33,47.87,0.19,71.81,0.07c6.22-0.03,12,0.43,17.52,4
			c34.12,22.15,70.99,38.11,110.94,47.81c0,15.81,0,31.05,0,45.87c-1.43,2.68-3.29,4-5.74,4.86c-17.93,6.31-27.4,19.23-30.42,37.83
			c-2.55,15.7-7.53,17.63-20.47,9.08c-23.96-15.83-43.83-14.03-64.42,6.01c-7.91,7.7-15.85,15.41-23.28,23.57
			c-16.34,17.96-17.7,38.77-4.27,58.69c1.37,2.03,3.11,3.83,4.35,5.93c4.4,7.4,2.69,12.84-5.31,15.69
			c-3.4,1.21-7.26,1.02-10.85,1.78c-21.22,4.49-35.35,21.06-36.07,42.72c-0.37,11.04,0.5,22.13-0.24,33.13
			c-0.96,14.22,3.1,26.51,11.66,37.59C606.55,533.46,604.32,534.93,601.69,535.99z"/>
		<path class="st0" d="M653.28,631.31c-15.38,8.32-28.58,9.65-43.52,3.74c-94.34-37.35-167.31-98.21-211.35-190.9
			c-13.55-28.51-20.02-59.04-20.05-90.74c-0.06-66.29-0.07-132.58-0.01-198.87c0.02-18.07,1.15-19.19,19.18-21.99
			c51.64-8.03,98.75-27.67,141.95-56.63c10.69-7.17,21.29-10.27,34.15-10.04c38.04,0.68,76.11,0.46,114.16,0.09
			c9.65-0.09,17.49,2.47,25.56,7.91c45.21,30.49,94.25,51.63,148.71,59.11c12.86,1.76,15.78,4.76,15.88,17.8
			c0.31,40.32,0.11,80.65,0.11,124.2c-15.62-15.16-32.07-21.75-53.58-19.62c0-17.61,0.05-34.56-0.01-51.52
			c-0.08-21.47-0.33-21.91-21.62-26.83c-37.32-8.62-72.08-23.34-103.98-44.43c-8.59-5.68-17.17-8.43-27.42-8.29
			c-28.84,0.38-57.7,0.42-86.54-0.02c-10.3-0.16-18.94,2.63-27.5,8.22c-32.55,21.26-67.78,36.36-105.84,44.82
			c-18.72,4.17-21.01,7.18-21.05,26.1c-0.09,44.81,0.85,89.64-0.27,134.42c-1.23,49.3,14.06,92.82,42.88,131.83
			c35.38,47.9,80.68,83.39,136.18,105.63c8.05,3.23,16.04,5.47,26.22,4.67C632.47,600.22,637.78,617.63,653.28,631.31z"/>
		<path class="st0" d="M705.58,634.35c-14.1-8.3-23.36-20.81-34.28-31.43c-5.49-5.34-5.49-11.94-0.69-18.2
			c1.86-2.43,3.95-4.72,5.56-7.31c16.41-26.31,1.26-59.79-29.22-64.73c-18-2.91-18.66-3.65-18.83-22.24
			c-0.08-8.59,0.31-17.19-0.09-25.76c-0.46-9.82,4.12-14.82,13.52-16.18c3.03-0.44,6.04-1.07,9.02-1.8
			c28.09-6.86,40.9-37.11,26.51-62.18c-3.33-5.8-9.06-10.15-10.49-18.74c6.88-14.2,20.59-24.03,32.42-35.25
			c6.32-6,13.48-2.32,19.76,2.7c11.73,9.37,24.73,12.68,39.5,7.68c16.66-5.64,26.52-16.65,29.1-34.17
			c2.42-16.39,4.66-18.34,20.94-18.63c7.36-0.13,14.72-0.09,22.08-0.01c17.87,0.2,19.97,1.44,22.65,19.17
			c2.98,19.64,14.97,30.23,32.97,34.93c12.62,3.29,24.05-0.55,34.57-8.05c12.78-9.12,15.86-8.83,26.61,1.47
			c5.31,5.09,10.4,10.4,15.55,15.66c12.39,12.64,12.58,14.8,2.76,29.46c-14.03,20.94-9.79,46.07,9.94,60.17
			c6.26,4.47,13.45,5.51,20.64,7.1c14.92,3.31,15.95,4.64,16.28,19.5c0.18,7.97,0.12,15.95,0.01,23.92
			c-0.23,16.92-1.78,18.69-18.14,21.21c-24.29,3.75-40.27,24.88-36.65,48.56c1.13,7.42,4.64,13.74,8.89,19.9
			c8.66,12.51,8.55,16.04-2.44,26.65c-9.56,9.24-17.35,20.7-29.28,26.25c-7.52-1.1-11.43-6.21-16.49-9.49
			c-26.47-17.17-59.13-3.12-64.95,27.77c-3.62,19.2-4.08,19.6-23.82,19.72c-7.36,0.05-14.72,0.11-22.08-0.02
			c-15.68-0.29-18.15-2.02-19.89-17.31c-1.59-13.95-8.38-24.07-20.05-31.13c-15.1-9.13-30.33-8.72-45.06,0.75
			C717.34,627.55,713.13,632.22,705.58,634.35z M928.05,480.03c2.1-55.21-46.27-108.76-108.56-108.1
			c-59.4,0.63-107.08,47.96-107.64,107.52c-0.53,57.04,43.6,108.97,107.99,109.06C890.81,588.62,930.73,528.24,928.05,480.03z"/>
		<path class="st0" d="M116.24,756.15c12.41-1.1,15.48,6.82,18.59,14.14c10.02,23.62,19.75,47.36,29.59,71.05
			c27.9,67.14,55.83,134.27,83.68,201.43c7.81,18.84,6.41,22.14-12.87,30.28c-18.56,7.84-37.15,15.65-55.89,23.06
			c-16.01,6.33-19.79,4.86-26.59-11.22c-24.27-57.41-48.26-114.93-72.32-172.42c-13.44-32.11-26.89-64.23-40.2-96.4
			c-2.09-5.07-4.01-10.34-4.98-15.7c-1.21-6.71,1.61-12.07,8.13-14.8c23.11-9.68,46.25-19.28,69.42-28.82
			C114.46,756.06,116.42,756.12,116.24,756.15z"/>
		<path class="st0" d="M200.9,442.39c29.97,0,58.03,0,87.54,0c0-9.81-0.35-18.88,0.08-27.92c0.68-14.12,5.18-18.73,19-19.13
			c13.44-0.39,26.9-0.09,40.6-0.09c4.88,9.91,5.59,20.22,8.74,30.63c-11.86,4.17-23.69-0.17-35.58,3.07
			c-2.43,8.78-0.69,17.94-1.12,26.94c-0.73,15.05-4.79,19.56-20.14,19.7c-31.25,0.3-62.5,0.1-93.75,0.09
			c-7.32,0-13.57,0.75-20.24,5.9c-19.89,15.34-44.45,10.82-57.48-9.06c-12.04-18.37-5.59-44.68,13.66-55.78
			c19.94-11.5,44.36-3.3,55.56,18.68C198.84,437.55,199.73,439.77,200.9,442.39z"/>
		<path class="st0" d="M320.09,159.91c9.26,0.7,16.44,1.24,24.28,1.83c1.75,10.05,0.94,19.59,0.69,31.08
			c-13.94,0-27.21,0.43-40.43-0.13c-10.83-0.46-15.01-4.79-15.79-16.14c-0.66-9.7-0.14-19.49-0.14-30.5c-30.3,0-59.38,0-90.04,0
			c-1.99,2.5-4.7,6.52-8,9.98c-15.67,16.4-39.73,17.15-55.87,1.91c-15.67-14.8-16.41-40.61-1.61-56.07
			c15.55-16.24,40.46-17.78,55.38-0.55c9.05,10.44,18.35,11.94,30.3,11.73c25.1-0.43,50.22-0.22,75.33-0.1
			c22.82,0.11,25.73,3.01,25.88,25.1C320.13,144.71,320.09,151.38,320.09,159.91z"/>
		<path class="st0" d="M1051.19,145.57c-28.62,0-55.42,0-83.84,0c0,9.14,0.25,17.57-0.05,25.98c-0.58,16.14-5.23,20.9-20.71,21.28
			c-9.8,0.24-19.6,0.07-29.4-0.01c-1.8-0.01-3.59-0.48-6.18-0.85c-2.66-9.41-1.36-19.02-1-28.35c7.27-5.6,16.11-0.24,23.34-4.5
			c2.45-6.47,1.1-13.26,1.19-19.91c0.3-22.73,3.67-26.2,27.03-26.29c24.5-0.09,49.02-0.47,73.51,0.19
			c10.56,0.28,17.7-2.45,25.06-10.83c15.56-17.7,40.75-16.96,56.8-0.18c14.11,14.76,13.8,40.26-0.68,54.91
			c-16.06,16.25-41.12,15.76-57.19-1.26C1056.14,152.67,1053.83,149.03,1051.19,145.57z"/>
		<path class="st0" d="M232.53,277.87c18.89,0,37.83,0,56.76,0c18.21,0,36.42,0,55.36,0c0,11.28,0,20.83,0,30.49
			c-5.82,3.64-12.06,1.75-17.94,1.8c-26.94,0.24-53.88,0.29-80.81,0.01c-10.59-0.11-19.06,1.45-27.73,9.69
			c-16.27,15.47-43.53,11.25-56.71-6.56c-13.55-18.32-9.1-43.61,9.93-56.42c16.25-10.94,38.51-8.04,51.46,7.02
			C226.37,267.99,229.05,272.79,232.53,277.87z"/>
		<path class="st0" d="M1010.47,306.01c-33.47,0-65.88,0-98.9,0c-3.85-10.41-1.48-20.54-1.86-31.86c33.84,0,66.68,0,99.96,0
			c8.58-13.29,18.92-23.08,35.23-23.67c11.63-0.42,21.7,2.97,29.99,11.2c16.5,16.38,15.31,43.88-2.49,58.6
			C1055.7,334.08,1024.89,332.89,1010.47,306.01z"/>
		<path class="st0" d="M601.69,535.99c2.64-1.05,4.87-2.52,5.66-5.48c5.12,3.64,10.25,7.27,15.37,10.91
			c-0.74,1.2-1.48,2.41-2.22,3.61C613.95,542.6,606.92,541.17,601.69,535.99z"/>
		<path class="st0" d="M622.73,541.42c3.62,0.47,7.23,0.94,11.7,1.52c-4.46,7.01-9.17,4.72-13.92,2.1
			C621.25,543.83,621.99,542.62,622.73,541.42z"/>
		<path class="st0" d="M820.38,556.37c-41.47,0.15-76.36-34.34-76.63-75.76c-0.27-41.48,34.05-75.95,75.96-76.3
			c41.44-0.34,76.66,34.36,76.79,75.66C896.63,521.28,861.82,556.22,820.38,556.37z"/>
	</g>
</g>
<g id="Layer_2">
</g>
</svg>
