<?xml version="1.0" encoding="utf-8"?>
<!-- Generator: Adobe Illustrator 27.8.0, SVG Export Plug-In . SVG Version: 6.00 Build 0)  -->
<svg version="1.1" xmlns="http://www.w3.org/2000/svg" xmlns:xlink="http://www.w3.org/1999/xlink" x="0px" y="0px"
	 viewBox="0 0 1143.82 1143.82" style="enable-background:new 0 0 1143.82 1143.82;" xml:space="preserve">
<style type="text/css">
	.st0{fill:#FFFFFF;}
</style>
<g id="Layer_3">
</g>
<g id="Layer_1">
	<g>
		<path class="st0" d="M175.21,395.75c0-14.62-0.25-27.09,0.06-39.54c0.54-21.63,14.19-37.39,35.54-37.69
			c123.15-1.75,228.39-52.14,327.51-119.4c27.24-18.48,36.27-18.54,63.99,0.63c77.82,53.79,161.12,95.36,255.07,112.47
			c22.24,4.05,44.75,6.1,67.49,6.14c23.14,0.04,38.97,14.37,39.35,35.62c2.06,115.35-13.15,227.65-60.48,334.08
			c-60.91,136.96-163.64,233.7-293.2,304.58c-6.93,3.79-13.87,7.57-20.93,11.1c-12.96,6.5-26.04,6.83-39.09,0.14
			c-160.25-82.15-280.1-200.71-337.62-375.24C187.74,552.35,176.89,473.7,175.21,395.75z M569.31,769.82
			c26.06,0,52.13,0.56,78.16-0.14c35.66-0.96,61.58-27.57,61.81-63.06c0.29-45.88-0.05-91.76,0.13-137.64
			c0.09-22.32-9.74-39.48-27.8-51.3c-7.78-5.1-10.04-10.24-10.08-19.05c-0.13-27.48-7.64-52.74-27.96-72.32
			c-32.09-30.92-70.2-37.54-111.32-22.97c-40.52,14.36-60.82,45.49-63.75,87.51c-0.91,13.04-2.59,22.43-14.93,30.54
			c-16.35,10.74-23.55,28.05-23.4,48.27c0.33,44.75-0.02,89.5,0.13,134.24c0.13,39.46,26.18,65.49,65.93,65.9
			C520.59,770.07,544.95,769.86,569.31,769.82z"/>
		<path class="st0" d="M544.69,1125.34c-93.2-0.92-198.47-34.69-292.35-102.99c-7.51-5.46-12.65-6.98-21.84-1.41
			c-36.84,22.32-83.79,13.36-109.97-19.51c-26.42-33.18-25.24-79.26,2.82-110.55c28.24-31.48,73.77-37.92,109.51-15.49
			c35.72,22.42,50,67.85,31.86,107c-5.34,11.52-2.86,16.19,6.49,22.69c73.32,50.92,153.78,81.51,242.83,91.6
			c243.36,27.57,475.01-124.22,548.7-358.53c27.91-88.74,31.82-178.65,11.05-269.44c-2.13-9.32-2.09-18.09,8.21-20.83
			c12.04-3.2,15.4,6.44,17.45,15.75c62.25,282.93-106.98,565.73-384.57,642.3C666.71,1119.23,617.46,1125.74,544.69,1125.34z"/>
		<path class="st0" d="M27.24,575.83C26.17,344.71,185.25,130.47,414.71,63.48c149.59-43.67,292.73-25.94,428.3,51
			c8.16,4.63,13.28,5.85,21.81-0.6c30.84-23.3,71.83-19.62,98.74,7.38c26.21,26.29,29.6,67.52,8.03,97.75
			c-21.56,30.21-61.6,40.44-95.1,24.29c-33.44-16.12-50.93-53.74-39.56-89.55c3.83-12.05-2.23-14.96-9.71-19.15
			c-63.81-35.72-131.55-58.93-204.77-65.25c-183.69-15.88-335.12,47.43-453.34,187.86C103.5,335.15,67.09,426.52,56.05,528.21
			c-5.12,47.16-3.21,93.7,3.94,140.31c0.68,4.43,1.41,9.07,0.79,13.42c-0.89,6.26-5.14,10.1-11.71,10.03
			c-8.17-0.08-11.87-5.21-13.26-12.7C29.87,647.45,27.93,615.29,27.24,575.83z"/>
		<path class="st0" d="M569.78,506.42c-21.48,0-42.98-0.45-64.44,0.2c-10.07,0.3-12.24-3.35-11.78-12.83
			c2-41.83,33.94-72.51,76.3-72.45c42.46,0.06,74.22,30.64,76.23,72.53c0.46,9.6-1.91,13.03-11.86,12.74
			C612.76,505.98,591.27,506.42,569.78,506.42z"/>
		<path class="st0" d="M567.7,701.89c-28.8-0.02-33.86-6.16-28.04-34.46c2.61-12.69,5.21-25.4,8.42-37.95
			c1.37-5.35,0.59-9.5-1.85-14.41c-6.5-13.11-4.99-25.52,6.87-34.95c10.45-8.31,21.93-8.57,32.75-0.48
			c12.22,9.14,14.23,21.47,7.87,34.63c-2.98,6.16-3.16,11.2-1.37,17.62c2.72,9.75,3.54,20.01,5.89,29.88
			C606.57,696.76,602.75,701.9,567.7,701.89z"/>
	</g>
</g>
<g id="Layer_2">
</g>
</svg>
