<?xml version="1.0" encoding="utf-8"?>
<!-- Generator: Adobe Illustrator 27.8.0, SVG Export Plug-In . SVG Version: 6.00 Build 0)  -->
<svg version="1.1" xmlns="http://www.w3.org/2000/svg" xmlns:xlink="http://www.w3.org/1999/xlink" x="0px" y="0px"
	 viewBox="0 0 1143.82 1143.82" style="enable-background:new 0 0 1143.82 1143.82;" xml:space="preserve">
<style type="text/css">
	.st0{fill:#FFFFFF;}
</style>
<g id="Layer_3">
</g>
<g id="Layer_1">
	<g>
		<path class="st0" d="M1030.58,834.55c-11.29-12-23.25-11.05-36.56-3.01c-18.13,10.95-37.37,19.59-58.54,24.5
			c-2.77-13.44,0.52-26.59-4.41-39.2c-4.7-12.01-11.42-21.97-21.77-29.38c-26.34-18.86-89.65-14.49-113.15,7.94
			c-12.83,12.25-25.4,24.8-37.61,37.66c-5.78,6.09-10.32,7.04-18.2,2.64c-69.46-38.76-112.86-96.9-131.5-173.96
			c-2.48-10.27-0.87-15.8,11.47-14.44c8.18,0.9,16.67,1.13,24.8,0.01c51.11-7.03,91.58,7.09,126.02,48.72
			c29.15,35.22,82.14,32.08,113.97,0.39c31.49-31.35,32.44-82.21,0.51-114.8c-13.6-13.88-19.19-28.73-18.32-47.6
			c0.85-18.3-0.08-36.67,0.24-54.99c0.45-25.06-8.33-46.11-26.23-63.51c-18.9-18.37-37.76-36.79-58.85-57.33
			c81.64-23.39,154.25-13.54,222.65,29.02c7.65,4.76,8.53,8.1,1.85,14.29c-9.1,8.43-17.9,17.22-26.25,26.39
			c-21.2,23.3-21.38,55.07-0.66,78.5c4.69,5.31,9.41,10.76,14.9,15.16c11.08,8.9,14.63,19.78,14.43,34.02
			c-0.56,40.35,23.01,63.44,63.52,64c12.42,0.17,24.9,0.8,37.24-0.19c11.85-0.95,14.24,4.05,12.76,14.46
			c-2.49,17.55-5.23,35.1-11.14,51.78c-5.83,16.46-0.46,27.16,14.31,34.5c-13.08,12.33-16.23,31.2-28.88,43.81
			c-0.44,0.38-0.84,1.02-1.32,1.09c-30.19,4.17-32.03,5.44-23.95,37.17C1056.12,810.39,1045.03,824.61,1030.58,834.55z"/>
		<path class="st0" d="M544.82,990.43c27.11,35.19,60.08,53,101.32,53.54c60.28,0.79,120.57,0.26,180.86,0.29
			c4.14,0,8.28-0.12,12.41,0.03c14.03,0.51,24.16,5.73,24.71,21.56c0.5,14.44-7.99,22.24-25.23,22.97
			c-9.44,0.4-18.91,0.09-28.37,0.1c-47.87,0-95.75,0-143.62,0c-74.69,0-113.76-18.22-161.65-75.98
			c-3.63,8.55-6.55,16.83-10.56,24.54c-5.83,11.22-15.33,17.34-27.67,11.98c-11.95-5.2-18.13-14.59-12.7-28.58
			c8.95-23.03,17.31-46.29,26.54-69.2c4.44-11.01,13.33-16.7,25.46-14.54c26.09,4.66,52.18,9.43,78.09,14.97
			c12.07,2.58,17.83,11.68,16.26,23.78c-1.56,12.04-8.91,19.3-21.7,18.5C568.64,993.77,558.36,992.06,544.82,990.43z"/>
		<path class="st0" d="M908.7,164.81c3.56-9.08,5.84-16.41,9.22-23.2c5.67-11.38,13.85-20.01,27.91-14.73
			c13.78,5.18,18.64,15.81,13.43,29.82c-8.62,23.13-17.37,46.23-26.76,69.06c-4.53,11.02-13.59,15.99-25.72,13.72
			c-24.31-4.55-48.67-8.88-72.87-14c-16.28-3.45-23.89-13.95-20.25-27.21c4.11-14.94,15.29-18.17,29.12-15.91
			c7.46,1.22,14.76,4.11,24.52,1.68c-26.81-34.83-61.59-51.36-103.77-51.87c-59.65-0.71-119.32-0.28-178.98-0.11
			c-11.03,0.03-19.29-3.16-24.27-13.85c-3.85-8.25-1.25-14.95,3.19-21.46c4.36-6.39,10.89-8.22,18.48-8.19
			c66.75,0.25,133.59-1.88,200.21,1.15C835.17,92.12,876.35,120.36,908.7,164.81z"/>
		<path class="st0" d="M823.44,516.54c-4.44,38.48,3.83,72.01,33.31,99.93c13.62,12.9,9.69,36.74-4.12,49.43
			c-13.33,12.25-34.67,13.39-48.6,1.16c-12.85-11.28-24.56-23.86-36.62-36.02c-18.34-18.49-39.96-28.28-66.49-27.63
			c-27.75,0.68-55.54-0.3-83.3,0.37c-10.57,0.26-14.89-2.16-13.92-13.63c7.69-91.12,51.03-160.13,128.01-208.72
			c6.26-3.95,10.23-3.06,15.19,2.01c21.47,21.95,43.29,43.55,64.95,65.31c7.9,7.93,11.53,17.66,11.57,28.77
			C823.48,490.55,823.44,503.55,823.44,516.54z"/>
		<path class="st0" d="M1091.77,575.15c-4.14,0-8.28,0.01-12.42,0c-23.84-0.07-26.32-1.58-25.43-24.83
			c1-26.1-11.02-44.65-29.18-61.6c-21.56-20.14-21.02-21.84-0.89-41.95c26.39-26.36,26.45-26.4,48.45,3.62
			c24.07,32.84,40.13,68.97,47.67,109.28c2.41,12.86,1.05,17.27-12.26,15.6C1102.49,574.59,1097.09,575.15,1091.77,575.15z"/>
		<path class="st0" d="M794.71,856.85c12.81-11.79,22.23-20.65,31.87-29.27c7.63-6.82,48.29-10.51,55.98-4.07
			c11.96,10,5.96,24.31,5.86,36.61c-0.08,9.8-9.93,6.02-15.57,6.25C848.16,867.43,823.72,865.55,794.71,856.85z"/>
		<path class="st0" d="M419.43,448.46c-6.53-32.45-35.72-57.63-68.98-58.01c-47.26-0.57-94.51-0.64-141.77,0.03
			c-36.07,0.5-66.43,29.86-69.2,65.54c-0.43,5.08-2.17,10.9,2.48,15.09c12.07,10.79,23.86,22.12,41.51,28.15
			c0-10.44-0.39-19.24,0.11-27.98c0.75-13.6,7.56-22.86,21.76-22.97c15.16-0.11,22.12,9.55,22.54,24
			c0.36,12.39,0.5,24.82-0.07,37.18c-0.36,7.45,2.59,10.4,9.55,11.93c30.54,6.64,60.82,5.79,91.18-1.53
			c7.17-1.74,9.69-4.69,9.44-11.86c-0.46-12.39-0.35-24.82-0.03-37.21c0.39-14.03,7.95-22.33,21.94-22.47
			c13.24-0.18,20.66,7.74,21.55,20.91c0.53,8.23,0.07,16.51,0.07,26.63C413.57,481.48,423.51,468.56,419.43,448.46z M269.17,344.11
			c24.89,4.61,47.58-7.57,58.16-30.18c5.33-11.4,3.52-23.12,4.08-33.52c0-5.4,0.07-9.55,0-13.67c-0.5-30.86-22.37-53.47-51.66-53.51
			c-29.36,0-51.09,22.33-51.73,53.47c-0.21,10.05-0.46,20.13,0.18,30.14C229.73,320.22,247.2,340.03,269.17,344.11z"/>
		<path class="st0" d="M280.14,76.41C144.02,75.95,32.64,187.57,32.92,324.23c0.32,136.09,110.63,245.8,247.01,245.66
			c135.31-0.18,246.62-111.59,246.58-246.79C526.48,187.32,416.2,76.9,280.14,76.41z M381.51,495.9c0-10.12,0.46-18.39-0.07-26.63
			c-0.89-13.17-8.31-21.09-21.55-20.91c-13.99,0.14-21.55,8.45-21.94,22.47c-0.32,12.39-0.43,24.82,0.03,37.21
			c0.25,7.17-2.27,10.12-9.44,11.86c-30.36,7.31-60.64,8.17-91.18,1.53c-6.96-1.53-9.91-4.47-9.55-11.93
			c0.57-12.36,0.43-24.78,0.07-37.18c-0.43-14.45-7.39-24.11-22.54-24c-14.2,0.11-21.02,9.37-21.76,22.97
			c-0.5,8.73-0.11,17.54-0.11,27.98c-17.64-6.03-29.43-17.36-41.51-28.15c-4.65-4.19-2.91-10.01-2.48-15.09
			c2.77-35.68,33.13-65.05,69.2-65.54c47.26-0.68,94.51-0.6,141.77-0.03c33.27,0.39,62.45,25.56,68.98,58.01
			C423.51,468.56,413.57,481.48,381.51,495.9z M228.02,266.71c0.64-31.14,22.37-53.47,51.73-53.47
			c29.29,0.03,51.16,22.65,51.66,53.51c0.07,4.12,0,8.27,0,13.67c-0.57,10.4,1.24,22.12-4.08,33.52
			c-10.58,22.61-33.26,34.79-58.16,30.18c-21.98-4.08-39.44-23.9-40.97-47.26C227.56,286.84,227.81,276.76,228.02,266.71z
			 M369.47,348.16c-8.17-1.49-7.17-4.86-4.19-10.97c15.12-31.32,14.03-64.44,7.24-97.07c-8.66-41.86-53.22-73.78-96.01-71.19
			c-47.44,2.88-86.13,36.29-91.39,81.02c-3.48,29.89-5.5,60.18,9.73,88.3c2.84,5.29,2.34,8.63-4.51,9.83
			c-41.76,7.49-69.2,33.09-87.49,70.23c-40.97-64.37-36.11-174.97,40.48-244.59c76.4-69.41,190.8-70.58,269.69-2.59
			c77.05,66.36,86.53,178.31,43.7,247.47C438.56,381.46,411.3,355.61,369.47,348.16z"/>
		<path class="st0" d="M381.51,495.9c0-10.12,0.46-18.39-0.07-26.63c-0.89-13.17-8.31-21.09-21.55-20.91
			c-13.99,0.14-21.55,8.45-21.94,22.47c-0.32,12.39-0.43,24.82,0.03,37.21c0.25,7.17-2.27,10.12-9.44,11.86
			c-30.36,7.31-60.64,8.17-91.18,1.53c-6.96-1.53-9.91-4.47-9.55-11.93c0.57-12.36,0.43-24.78,0.07-37.18
			c-0.43-14.45-7.39-24.11-22.54-24c-14.2,0.11-21.02,9.37-21.76,22.97c-0.5,8.73-0.11,17.54-0.11,27.98
			c-17.64-6.03-29.43-17.36-41.51-28.15c-4.65-4.19-2.91-10.01-2.48-15.09c2.77-35.68,33.13-65.05,69.2-65.54
			c47.26-0.68,94.51-0.6,141.77-0.03c33.27,0.39,62.45,25.56,68.98,58.01C423.51,468.56,413.57,481.48,381.51,495.9z"/>
		<path class="st0" d="M331.41,280.42c-0.57,10.4,1.24,22.12-4.08,33.52c-10.58,22.61-33.26,34.79-58.16,30.18
			c-21.98-4.08-39.44-23.9-40.97-47.26c-0.64-10.01-0.39-20.1-0.18-30.14c0.64-31.14,22.37-53.47,51.73-53.47
			c29.29,0.03,51.16,22.65,51.66,53.51C331.49,270.86,331.41,275.02,331.41,280.42z"/>
		<g>
			<path class="st0" d="M384.14,742.62c0.05-9.41-6.39-14.03-15.99-14.35c-28.7-0.97-53.56-12-75.32-30.11
				c-8.88-7.4-16.36-8.07-25.4-0.41c-21.96,18.57-47.18,29.55-76.29,30.59c-10.87,0.37-15.92,6.37-16.01,16.84
				c-0.11,13.45-0.02,26.87-0.02,40.3c0,11.51-0.16,23.04,0.05,34.55c0.62,34.93,14.74,62.98,43.63,82.93
				c16.36,11.33,33.45,21.59,50.03,32.62c7.2,4.8,14,5.24,21.25,0.46c18.22-11.97,36.95-23.28,54.63-36.01
				c21.82-15.69,35-37.37,38.15-64.27C386.49,804.82,384.02,773.67,384.14,742.62z M352.02,794.23
				c-25.05,25.77-50.81,50.85-76.24,76.24c-3.98,3.97-8.81,5.7-14.97,6.35c-2.2-0.48-5.64-0.29-7.82-1.85
				c-18.71-13.48-35.5-29.2-48.08-48.51c-5.45-8.37-0.64-17.17,6.41-23.6c7.48-6.81,16.16-5.92,24.86-2.79
				c1.58,0.57,2.79,2.12,4.26,3.08c7.99,5.2,12.25,19.41,22.45,16.33c8.51-2.57,14.68-13,21.81-20.03
				c12.17-12,24.1-24.26,36.49-36.04c9.61-9.13,20.38-9.46,29.99-0.4C361.42,772.66,361.67,784.31,352.02,794.23z"/>
			<path class="st0" d="M440.31,703.13c0.07-14.48-9.83-21.58-24.6-22.08c-44.17-1.49-82.44-18.46-115.92-46.33
				c-13.67-11.4-25.17-12.43-39.09-0.64c-33.8,28.58-72.61,45.48-117.42,47.08c-16.72,0.57-24.5,9.8-24.64,25.92
				c-0.18,20.7-0.04,41.36-0.04,62.03c0,17.72-0.25,35.47,0.07,53.19c0.96,53.75,22.69,96.93,67.14,127.64
				c25.17,17.43,51.48,33.23,77.01,50.2c11.08,7.39,21.55,8.06,32.7,0.71c28.05-18.43,56.88-35.82,84.08-55.42
				c33.59-24.14,53.86-57.52,58.73-98.91C443.93,798.86,440.13,750.93,440.31,703.13z M396.03,789.59
				c-1.53,18.14,2.31,39.94-3.41,61.56c-6.78,25.78-20.84,46.09-42.43,61c-20.35,14.1-41.54,26.91-61.92,40.9
				c-6.42,4.4-10.86,4.08-17.08-0.14c-20.95-14.27-42.78-27.2-63.37-41.93c-28.05-20.06-43.28-47.79-43.82-82.65
				c-0.46-30.68,0.11-61.39-0.39-92.07c-0.14-8.52,2.06-12.92,10.97-14.16c35.79-4.97,67.53-19.99,96.79-40.44
				c6.5-4.54,10.79-4.05,16.94,0.21c29.4,20.31,61.17,35.26,96.93,40.3c8.88,1.24,11.32,5.72,10.97,14.31
				C395.57,752.95,396.03,769.49,396.03,789.59z"/>
		</g>
	</g>
</g>
<g id="Layer_2">
</g>
</svg>
