<?xml version="1.0" encoding="utf-8"?>
<!-- Generator: Adobe Illustrator 27.8.0, SVG Export Plug-In . SVG Version: 6.00 Build 0)  -->
<svg version="1.1" xmlns="http://www.w3.org/2000/svg" xmlns:xlink="http://www.w3.org/1999/xlink" x="0px" y="0px"
	 viewBox="0 0 1143.82 1143.82" style="enable-background:new 0 0 1143.82 1143.82;" xml:space="preserve">
<style type="text/css">
	.st0{fill:#FFFFFF;}
</style>
<g id="Layer_3">
</g>
<g id="Layer_1">
	<g>
		<path class="st0" d="M929.7,253.01c-1.97,153.88-36.28,284.6-120.59,399.58C752,730.48,678.33,788.64,591.87,830.81
			c-5.95,2.9-15.82,2.93-21.75,0C401.48,747.37,295.63,613.18,249.3,431.49c-19.73-77.37-25.02-156.09-21.36-235.71
			c0.88-19.14,6.49-29.68,26.13-37.01c105.55-39.38,210.32-80.83,315.61-120.9c7.01-2.67,16.95-2.13,24.07,0.65
			c104.41,40.81,208.53,82.37,312.85,123.4c10.84,4.27,17.73,8.58,18.08,22.32C925.38,211.52,928.57,238.74,929.7,253.01z
			 M463.37,375.87c-6.37,0-9.76-0.03-13.15,0.01c-33.41,0.38-40.06,7.01-40.07,40.02c-0.01,62.74-0.08,125.49,0.04,188.23
			c0.04,24.01,8.83,33.17,32.95,33.23c89.58,0.22,179.16,0.21,268.73,0.01c25.01-0.05,33.52-9.05,33.55-34.37
			c0.08-62.74,0.04-125.49,0.02-188.23c-0.01-31.14-7.26-38.54-37.79-38.92c-4.48-0.06-8.96-0.44-15.43-0.78c0-6.73,0-12.87,0-19
			c-0.01-31.37,0.45-62.75-0.15-94.11c-0.84-43.27-28.01-70.01-71.21-70.6c-25.1-0.34-50.21-0.08-75.31-0.07
			c-57.96,0.01-82.13,24.14-82.18,82.08C463.34,306.91,463.37,340.46,463.37,375.87z"/>
		<path class="st0" d="M31.9,955.65c127.2,0,254.75,0,384.49,0c0,16.05,0.1,31.28-0.03,46.51c-0.13,14.87,7.04,21.95,21.95,21.93
			c93.04-0.08,186.09-0.08,279.13,0c14.91,0.01,22.07-7.03,21.9-21.94c-0.17-14.79-0.04-29.58-0.04-45.88
			c128.56,0,256.08,0,385.25,0c0.38,3.23,1.31,7.51,1.33,11.79c0.12,32.53,0.33,65.06-0.01,97.58c-0.4,37.9-25.63,63.52-63.52,63.54
			c-323.09,0.17-646.17,0.17-969.26,0c-37.85-0.02-63.09-25.72-63.37-63.68c-0.26-35.37,0.17-70.74,0.38-106.11
			C30.11,958.43,31.01,957.45,31.9,955.65z M129.26,1046.35c0.68-19.3-13.62-34.66-33.22-35.69c-17.71-0.93-34.04,14.25-34.89,32.42
			c-0.89,19,14.32,35.11,33.53,35.52C113.49,1079,128.61,1064.9,129.26,1046.35z M225.86,1046.15c0.68-18.72-13.49-34.3-32.01-35.2
			c-19.37-0.95-35.5,14.07-35.8,33.32c-0.29,18.67,14.32,33.85,33.05,34.34C209.91,1079.1,225.19,1064.84,225.86,1046.15z"/>
		<path class="st0" d="M36.6,939.56c0-6.78,0-12.93,0-19.08c0-183.69-0.02-367.37,0.01-551.06c0.01-67.5,38.57-106.21,105.85-106.34
			c23.29-0.05,46.59-0.01,71.17-0.01c1.27,22.05,2.46,42.81,3.81,66.36c-23.08,0-45.67-0.02-68.25,0
			c-38.64,0.03-46.93,8.42-46.93,47.47c0,180.26,0,360.53,0,540.79c0,6.83,0,13.66,0,21.86C80.82,939.56,60.04,939.56,36.6,939.56z"
			/>
		<path class="st0" d="M947.39,324.42c0-19.11,0-36.02,0-53.33c33.55,0,66.3-3.63,97.86,0.94c37.77,5.46,64.09,39.87,67.51,78.32
			c0.66,7.37,0.96,14.8,0.96,22.21c0.05,180.85,0.04,361.71,0.04,542.56c0,6.17,0,12.33,0,19.74c-19.16,0-36.55,0-56.43,0
			c0-6.71,0-13.28,0-19.85c0-180.85,0-361.71,0-542.56c0-38.16-9.69-48-47.21-48.02C989.61,324.41,969.12,324.42,947.39,324.42z"/>
		<path class="st0" d="M719.57,611.86c-96.19,0-189.55,0-283.87,0c0-70.2,0-139.41,0-209.75c94.86,0,188.68,0,283.87,0
			C719.57,472.32,719.57,541.94,719.57,611.86z M577.86,526.45c14.01,0.04,26.05-12.12,25.93-26.2
			c-0.12-13.88-10.81-24.68-24.84-25.09c-14.96-0.44-26.4,10.24-26.65,24.87C552.05,514.26,563.8,526.4,577.86,526.45z"/>
		<path class="st0" d="M488.53,374.86c0-41.48-0.41-81.4,0.19-121.29c0.26-17.28,12.91-34.05,29.69-34.76
			c39.78-1.69,79.76-1.92,119.49,0.28c16.33,0.9,28,15.05,28.51,31.91c1.24,40.92,0.4,81.91,0.4,123.87
			C607.28,374.86,548.83,374.86,488.53,374.86z"/>
	</g>
</g>
<g id="Layer_2">
</g>
</svg>
